<?xml version="1.0" encoding="utf-8" standalone="no"?>
<!DOCTYPE svg PUBLIC "-//W3C//DTD SVG 1.1//EN"
  "http://www.w3.org/Graphics/SVG/1.1/DTD/svg11.dtd">
<svg xmlns:xlink="http://www.w3.org/1999/xlink" width="720pt" height="504pt" viewBox="0 0 720 504" xmlns="http://www.w3.org/2000/svg" version="1.1">
 <metadata>
  <rdf:RDF xmlns:dc="http://purl.org/dc/elements/1.1/" xmlns:cc="http://creativecommons.org/ns#" xmlns:rdf="http://www.w3.org/1999/02/22-rdf-syntax-ns#">
   <cc:Work>
    <dc:type rdf:resource="http://purl.org/dc/dcmitype/StillImage"/>
    <dc:date>2025-12-10T09:51:23.884260</dc:date>
    <dc:format>image/svg+xml</dc:format>
    <dc:creator>
     <cc:Agent>
      <dc:title>Matplotlib v3.10.6, https://matplotlib.org/</dc:title>
     </cc:Agent>
    </dc:creator>
   </cc:Work>
  </rdf:RDF>
 </metadata>
 <defs>
  <style type="text/css">*{stroke-linejoin: round; stroke-linecap: butt}</style>
 </defs>
 <g id="figure_1">
  <g id="patch_1">
   <path d="M 0 504 
L 720 504 
L 720 0 
L 0 0 
z
" style="fill: #ffffff"/>
  </g>
  <g id="axes_1">
   <g id="patch_2">
    <path d="M 90 448.56 
L 648 448.56 
L 648 60.48 
L 90 60.48 
z
" style="fill: #ffffff"/>
   </g>
   <g id="PathCollection_1">
    <defs>
     <path id="m150c960469" d="M 0 3 
C 0.795609 3 1.55874 2.683901 2.12132 2.12132 
C 2.683901 1.55874 3 0.795609 3 0 
C 3 -0.795609 2.683901 -1.55874 2.12132 -2.12132 
C 1.55874 -2.683901 0.795609 -3 0 -3 
C -0.795609 -3 -1.55874 -2.683901 -2.12132 -2.12132 
C -2.683901 -1.55874 -3 -0.795609 -3 0 
C -3 0.795609 -2.683901 1.55874 -2.12132 2.12132 
C -1.55874 2.683901 -0.795609 3 0 3 
z
" style="stroke: #0000ff"/>
    </defs>
    <g clip-path="url(#pc31511663e)">
     <use xlink:href="#m150c960469" x="115.363636" y="413.875667" style="fill: #0000ff; stroke: #0000ff"/>
     <use xlink:href="#m150c960469" x="115.363636" y="424.762617" style="fill: #0000ff; stroke: #0000ff"/>
     <use xlink:href="#m150c960469" x="115.363636" y="311.114965" style="fill: #0000ff; stroke: #0000ff"/>
     <use xlink:href="#m150c960469" x="115.363636" y="428.707804" style="fill: #0000ff; stroke: #0000ff"/>
     <use xlink:href="#m150c960469" x="115.363636" y="430.92" style="fill: #0000ff; stroke: #0000ff"/>
     <use xlink:href="#m150c960469" x="242.181818" y="418.255767" style="fill: #0000ff; stroke: #0000ff"/>
     <use xlink:href="#m150c960469" x="242.181818" y="376.378495" style="fill: #0000ff; stroke: #0000ff"/>
     <use xlink:href="#m150c960469" x="242.181818" y="412.23953" style="fill: #0000ff; stroke: #0000ff"/>
     <use xlink:href="#m150c960469" x="242.181818" y="405.171148" style="fill: #0000ff; stroke: #0000ff"/>
     <use xlink:href="#m150c960469" x="242.181818" y="428.467756" style="fill: #0000ff; stroke: #0000ff"/>
     <use xlink:href="#m150c960469" x="242.181818" y="390.179377" style="fill: #0000ff; stroke: #0000ff"/>
     <use xlink:href="#m150c960469" x="369" y="424.051204" style="fill: #0000ff; stroke: #0000ff"/>
     <use xlink:href="#m150c960469" x="369" y="353.560246" style="fill: #0000ff; stroke: #0000ff"/>
     <use xlink:href="#m150c960469" x="369" y="373.913525" style="fill: #0000ff; stroke: #0000ff"/>
     <use xlink:href="#m150c960469" x="369" y="371.227953" style="fill: #0000ff; stroke: #0000ff"/>
     <use xlink:href="#m150c960469" x="369" y="411.75934" style="fill: #0000ff; stroke: #0000ff"/>
     <use xlink:href="#m150c960469" x="369" y="406.271197" style="fill: #0000ff; stroke: #0000ff"/>
     <use xlink:href="#m150c960469" x="495.818182" y="397.225587" style="fill: #0000ff; stroke: #0000ff"/>
     <use xlink:href="#m150c960469" x="495.818182" y="412.295297" style="fill: #0000ff; stroke: #0000ff"/>
     <use xlink:href="#m150c960469" x="495.818182" y="353.62919" style="fill: #0000ff; stroke: #0000ff"/>
     <use xlink:href="#m150c960469" x="495.818182" y="409.509098" style="fill: #0000ff; stroke: #0000ff"/>
     <use xlink:href="#m150c960469" x="495.818182" y="384.298007" style="fill: #0000ff; stroke: #0000ff"/>
     <use xlink:href="#m150c960469" x="495.818182" y="397.287133" style="fill: #0000ff; stroke: #0000ff"/>
     <use xlink:href="#m150c960469" x="622.636364" y="363.545488" style="fill: #0000ff; stroke: #0000ff"/>
     <use xlink:href="#m150c960469" x="622.636364" y="314.473927" style="fill: #0000ff; stroke: #0000ff"/>
     <use xlink:href="#m150c960469" x="622.636364" y="420.367667" style="fill: #0000ff; stroke: #0000ff"/>
     <use xlink:href="#m150c960469" x="622.636364" y="333.821573" style="fill: #0000ff; stroke: #0000ff"/>
    </g>
   </g>
   <g id="PathCollection_2">
    <defs>
     <path id="mc4c66f9106" d="M 0 3 
C 0.795609 3 1.55874 2.683901 2.12132 2.12132 
C 2.683901 1.55874 3 0.795609 3 0 
C 3 -0.795609 2.683901 -1.55874 2.12132 -2.12132 
C 1.55874 -2.683901 0.795609 -3 0 -3 
C -0.795609 -3 -1.55874 -2.683901 -2.12132 -2.12132 
C -2.683901 -1.55874 -3 -0.795609 -3 0 
C -3 0.795609 -2.683901 1.55874 -2.12132 2.12132 
C -1.55874 2.683901 -0.795609 3 0 3 
z
" style="stroke: #ffa500"/>
    </defs>
    <g clip-path="url(#pc31511663e)">
     <use xlink:href="#mc4c66f9106" x="115.363636" y="413.875667" style="fill: #ffa500; stroke: #ffa500"/>
     <use xlink:href="#mc4c66f9106" x="115.363636" y="424.762617" style="fill: #ffa500; stroke: #ffa500"/>
     <use xlink:href="#mc4c66f9106" x="115.363636" y="372.4056" style="fill: #ffa500; stroke: #ffa500"/>
     <use xlink:href="#mc4c66f9106" x="115.363636" y="395.13642" style="fill: #ffa500; stroke: #ffa500"/>
     <use xlink:href="#mc4c66f9106" x="115.363636" y="402.191179" style="fill: #ffa500; stroke: #ffa500"/>
     <use xlink:href="#mc4c66f9106" x="242.181818" y="78.12" style="fill: #ffa500; stroke: #ffa500"/>
     <use xlink:href="#mc4c66f9106" x="242.181818" y="360.085768" style="fill: #ffa500; stroke: #ffa500"/>
     <use xlink:href="#mc4c66f9106" x="242.181818" y="386.118602" style="fill: #ffa500; stroke: #ffa500"/>
     <use xlink:href="#mc4c66f9106" x="242.181818" y="365.722597" style="fill: #ffa500; stroke: #ffa500"/>
     <use xlink:href="#mc4c66f9106" x="242.181818" y="385.27361" style="fill: #ffa500; stroke: #ffa500"/>
     <use xlink:href="#mc4c66f9106" x="369" y="251.977794" style="fill: #ffa500; stroke: #ffa500"/>
     <use xlink:href="#mc4c66f9106" x="369" y="410.450832" style="fill: #ffa500; stroke: #ffa500"/>
     <use xlink:href="#mc4c66f9106" x="369" y="372.771919" style="fill: #ffa500; stroke: #ffa500"/>
     <use xlink:href="#mc4c66f9106" x="369" y="414.414851" style="fill: #ffa500; stroke: #ffa500"/>
     <use xlink:href="#mc4c66f9106" x="369" y="304.304257" style="fill: #ffa500; stroke: #ffa500"/>
     <use xlink:href="#mc4c66f9106" x="369" y="255.008908" style="fill: #ffa500; stroke: #ffa500"/>
     <use xlink:href="#mc4c66f9106" x="495.818182" y="316.52219" style="fill: #ffa500; stroke: #ffa500"/>
     <use xlink:href="#mc4c66f9106" x="495.818182" y="366.408351" style="fill: #ffa500; stroke: #ffa500"/>
     <use xlink:href="#mc4c66f9106" x="495.818182" y="369.365791" style="fill: #ffa500; stroke: #ffa500"/>
     <use xlink:href="#mc4c66f9106" x="495.818182" y="255.786114" style="fill: #ffa500; stroke: #ffa500"/>
     <use xlink:href="#mc4c66f9106" x="622.636364" y="335.009152" style="fill: #ffa500; stroke: #ffa500"/>
     <use xlink:href="#mc4c66f9106" x="622.636364" y="370.932223" style="fill: #ffa500; stroke: #ffa500"/>
     <use xlink:href="#mc4c66f9106" x="622.636364" y="290.373273" style="fill: #ffa500; stroke: #ffa500"/>
    </g>
   </g>
   <g id="matplotlib.axis_1">
    <g id="xtick_1">
     <g id="line2d_1">
      <path d="M 115.363636 448.56 
L 115.363636 60.48 
" clip-path="url(#pc31511663e)" style="fill: none; stroke: #b0b0b0; stroke-opacity: 0.3; stroke-width: 0.8; stroke-linecap: square"/>
     </g>
     <g id="line2d_2">
      <defs>
       <path id="mf12b8c2373" d="M 0 0 
L 0 3.5 
" style="stroke: #000000; stroke-width: 0.8"/>
      </defs>
      <g>
       <use xlink:href="#mf12b8c2373" x="115.363636" y="448.56" style="stroke: #000000; stroke-width: 0.8"/>
      </g>
     </g>
     <g id="text_1">
      <!-- 10 -->
      <g transform="translate(103.911136 469.237188) scale(0.18 -0.18)">
       <defs>
        <path id="DejaVuSans-31" d="M 794 531 
L 1825 531 
L 1825 4091 
L 703 3866 
L 703 4441 
L 1819 4666 
L 2450 4666 
L 2450 531 
L 3481 531 
L 3481 0 
L 794 0 
L 794 531 
z
" transform="scale(0.015625)"/>
        <path id="DejaVuSans-30" d="M 2034 4250 
Q 1547 4250 1301 3770 
Q 1056 3291 1056 2328 
Q 1056 1369 1301 889 
Q 1547 409 2034 409 
Q 2525 409 2770 889 
Q 3016 1369 3016 2328 
Q 3016 3291 2770 3770 
Q 2525 4250 2034 4250 
z
M 2034 4750 
Q 2819 4750 3233 4129 
Q 3647 3509 3647 2328 
Q 3647 1150 3233 529 
Q 2819 -91 2034 -91 
Q 1250 -91 836 529 
Q 422 1150 422 2328 
Q 422 3509 836 4129 
Q 1250 4750 2034 4750 
z
" transform="scale(0.015625)"/>
       </defs>
       <use xlink:href="#DejaVuSans-31"/>
       <use xlink:href="#DejaVuSans-30" transform="translate(63.623047 0)"/>
      </g>
     </g>
    </g>
    <g id="xtick_2">
     <g id="line2d_3">
      <path d="M 242.181818 448.56 
L 242.181818 60.48 
" clip-path="url(#pc31511663e)" style="fill: none; stroke: #b0b0b0; stroke-opacity: 0.3; stroke-width: 0.8; stroke-linecap: square"/>
     </g>
     <g id="line2d_4">
      <g>
       <use xlink:href="#mf12b8c2373" x="242.181818" y="448.56" style="stroke: #000000; stroke-width: 0.8"/>
      </g>
     </g>
     <g id="text_2">
      <!-- 15 -->
      <g transform="translate(230.729318 469.237188) scale(0.18 -0.18)">
       <defs>
        <path id="DejaVuSans-35" d="M 691 4666 
L 3169 4666 
L 3169 4134 
L 1269 4134 
L 1269 2991 
Q 1406 3038 1543 3061 
Q 1681 3084 1819 3084 
Q 2600 3084 3056 2656 
Q 3513 2228 3513 1497 
Q 3513 744 3044 326 
Q 2575 -91 1722 -91 
Q 1428 -91 1123 -41 
Q 819 9 494 109 
L 494 744 
Q 775 591 1075 516 
Q 1375 441 1709 441 
Q 2250 441 2565 725 
Q 2881 1009 2881 1497 
Q 2881 1984 2565 2268 
Q 2250 2553 1709 2553 
Q 1456 2553 1204 2497 
Q 953 2441 691 2322 
L 691 4666 
z
" transform="scale(0.015625)"/>
       </defs>
       <use xlink:href="#DejaVuSans-31"/>
       <use xlink:href="#DejaVuSans-35" transform="translate(63.623047 0)"/>
      </g>
     </g>
    </g>
    <g id="xtick_3">
     <g id="line2d_5">
      <path d="M 369 448.56 
L 369 60.48 
" clip-path="url(#pc31511663e)" style="fill: none; stroke: #b0b0b0; stroke-opacity: 0.3; stroke-width: 0.8; stroke-linecap: square"/>
     </g>
     <g id="line2d_6">
      <g>
       <use xlink:href="#mf12b8c2373" x="369" y="448.56" style="stroke: #000000; stroke-width: 0.8"/>
      </g>
     </g>
     <g id="text_3">
      <!-- 20 -->
      <g transform="translate(357.5475 469.237188) scale(0.18 -0.18)">
       <defs>
        <path id="DejaVuSans-32" d="M 1228 531 
L 3431 531 
L 3431 0 
L 469 0 
L 469 531 
Q 828 903 1448 1529 
Q 2069 2156 2228 2338 
Q 2531 2678 2651 2914 
Q 2772 3150 2772 3378 
Q 2772 3750 2511 3984 
Q 2250 4219 1831 4219 
Q 1534 4219 1204 4116 
Q 875 4013 500 3803 
L 500 4441 
Q 881 4594 1212 4672 
Q 1544 4750 1819 4750 
Q 2544 4750 2975 4387 
Q 3406 4025 3406 3419 
Q 3406 3131 3298 2873 
Q 3191 2616 2906 2266 
Q 2828 2175 2409 1742 
Q 1991 1309 1228 531 
z
" transform="scale(0.015625)"/>
       </defs>
       <use xlink:href="#DejaVuSans-32"/>
       <use xlink:href="#DejaVuSans-30" transform="translate(63.623047 0)"/>
      </g>
     </g>
    </g>
    <g id="xtick_4">
     <g id="line2d_7">
      <path d="M 495.818182 448.56 
L 495.818182 60.48 
" clip-path="url(#pc31511663e)" style="fill: none; stroke: #b0b0b0; stroke-opacity: 0.3; stroke-width: 0.8; stroke-linecap: square"/>
     </g>
     <g id="line2d_8">
      <g>
       <use xlink:href="#mf12b8c2373" x="495.818182" y="448.56" style="stroke: #000000; stroke-width: 0.8"/>
      </g>
     </g>
     <g id="text_4">
      <!-- 25 -->
      <g transform="translate(484.365682 469.237188) scale(0.18 -0.18)">
       <use xlink:href="#DejaVuSans-32"/>
       <use xlink:href="#DejaVuSans-35" transform="translate(63.623047 0)"/>
      </g>
     </g>
    </g>
    <g id="xtick_5">
     <g id="line2d_9">
      <path d="M 622.636364 448.56 
L 622.636364 60.48 
" clip-path="url(#pc31511663e)" style="fill: none; stroke: #b0b0b0; stroke-opacity: 0.3; stroke-width: 0.8; stroke-linecap: square"/>
     </g>
     <g id="line2d_10">
      <g>
       <use xlink:href="#mf12b8c2373" x="622.636364" y="448.56" style="stroke: #000000; stroke-width: 0.8"/>
      </g>
     </g>
     <g id="text_5">
      <!-- 30 -->
      <g transform="translate(611.183864 469.237188) scale(0.18 -0.18)">
       <defs>
        <path id="DejaVuSans-33" d="M 2597 2516 
Q 3050 2419 3304 2112 
Q 3559 1806 3559 1356 
Q 3559 666 3084 287 
Q 2609 -91 1734 -91 
Q 1441 -91 1130 -33 
Q 819 25 488 141 
L 488 750 
Q 750 597 1062 519 
Q 1375 441 1716 441 
Q 2309 441 2620 675 
Q 2931 909 2931 1356 
Q 2931 1769 2642 2001 
Q 2353 2234 1838 2234 
L 1294 2234 
L 1294 2753 
L 1863 2753 
Q 2328 2753 2575 2939 
Q 2822 3125 2822 3475 
Q 2822 3834 2567 4026 
Q 2313 4219 1838 4219 
Q 1578 4219 1281 4162 
Q 984 4106 628 3988 
L 628 4550 
Q 988 4650 1302 4700 
Q 1616 4750 1894 4750 
Q 2613 4750 3031 4423 
Q 3450 4097 3450 3541 
Q 3450 3153 3228 2886 
Q 3006 2619 2597 2516 
z
" transform="scale(0.015625)"/>
       </defs>
       <use xlink:href="#DejaVuSans-33"/>
       <use xlink:href="#DejaVuSans-30" transform="translate(63.623047 0)"/>
      </g>
     </g>
    </g>
    <g id="text_6">
     <!-- Number of Points (TSP Problem Size) -->
     <g transform="translate(203.913281 490.657812) scale(0.18 -0.18)">
      <defs>
       <path id="DejaVuSans-4e" d="M 628 4666 
L 1478 4666 
L 3547 763 
L 3547 4666 
L 4159 4666 
L 4159 0 
L 3309 0 
L 1241 3903 
L 1241 0 
L 628 0 
L 628 4666 
z
" transform="scale(0.015625)"/>
       <path id="DejaVuSans-75" d="M 544 1381 
L 544 3500 
L 1119 3500 
L 1119 1403 
Q 1119 906 1312 657 
Q 1506 409 1894 409 
Q 2359 409 2629 706 
Q 2900 1003 2900 1516 
L 2900 3500 
L 3475 3500 
L 3475 0 
L 2900 0 
L 2900 538 
Q 2691 219 2414 64 
Q 2138 -91 1772 -91 
Q 1169 -91 856 284 
Q 544 659 544 1381 
z
M 1991 3584 
L 1991 3584 
z
" transform="scale(0.015625)"/>
       <path id="DejaVuSans-6d" d="M 3328 2828 
Q 3544 3216 3844 3400 
Q 4144 3584 4550 3584 
Q 5097 3584 5394 3201 
Q 5691 2819 5691 2113 
L 5691 0 
L 5113 0 
L 5113 2094 
Q 5113 2597 4934 2840 
Q 4756 3084 4391 3084 
Q 3944 3084 3684 2787 
Q 3425 2491 3425 1978 
L 3425 0 
L 2847 0 
L 2847 2094 
Q 2847 2600 2669 2842 
Q 2491 3084 2119 3084 
Q 1678 3084 1418 2786 
Q 1159 2488 1159 1978 
L 1159 0 
L 581 0 
L 581 3500 
L 1159 3500 
L 1159 2956 
Q 1356 3278 1631 3431 
Q 1906 3584 2284 3584 
Q 2666 3584 2933 3390 
Q 3200 3197 3328 2828 
z
" transform="scale(0.015625)"/>
       <path id="DejaVuSans-62" d="M 3116 1747 
Q 3116 2381 2855 2742 
Q 2594 3103 2138 3103 
Q 1681 3103 1420 2742 
Q 1159 2381 1159 1747 
Q 1159 1113 1420 752 
Q 1681 391 2138 391 
Q 2594 391 2855 752 
Q 3116 1113 3116 1747 
z
M 1159 2969 
Q 1341 3281 1617 3432 
Q 1894 3584 2278 3584 
Q 2916 3584 3314 3078 
Q 3713 2572 3713 1747 
Q 3713 922 3314 415 
Q 2916 -91 2278 -91 
Q 1894 -91 1617 61 
Q 1341 213 1159 525 
L 1159 0 
L 581 0 
L 581 4863 
L 1159 4863 
L 1159 2969 
z
" transform="scale(0.015625)"/>
       <path id="DejaVuSans-65" d="M 3597 1894 
L 3597 1613 
L 953 1613 
Q 991 1019 1311 708 
Q 1631 397 2203 397 
Q 2534 397 2845 478 
Q 3156 559 3463 722 
L 3463 178 
Q 3153 47 2828 -22 
Q 2503 -91 2169 -91 
Q 1331 -91 842 396 
Q 353 884 353 1716 
Q 353 2575 817 3079 
Q 1281 3584 2069 3584 
Q 2775 3584 3186 3129 
Q 3597 2675 3597 1894 
z
M 3022 2063 
Q 3016 2534 2758 2815 
Q 2500 3097 2075 3097 
Q 1594 3097 1305 2825 
Q 1016 2553 972 2059 
L 3022 2063 
z
" transform="scale(0.015625)"/>
       <path id="DejaVuSans-72" d="M 2631 2963 
Q 2534 3019 2420 3045 
Q 2306 3072 2169 3072 
Q 1681 3072 1420 2755 
Q 1159 2438 1159 1844 
L 1159 0 
L 581 0 
L 581 3500 
L 1159 3500 
L 1159 2956 
Q 1341 3275 1631 3429 
Q 1922 3584 2338 3584 
Q 2397 3584 2469 3576 
Q 2541 3569 2628 3553 
L 2631 2963 
z
" transform="scale(0.015625)"/>
       <path id="DejaVuSans-20" transform="scale(0.015625)"/>
       <path id="DejaVuSans-6f" d="M 1959 3097 
Q 1497 3097 1228 2736 
Q 959 2375 959 1747 
Q 959 1119 1226 758 
Q 1494 397 1959 397 
Q 2419 397 2687 759 
Q 2956 1122 2956 1747 
Q 2956 2369 2687 2733 
Q 2419 3097 1959 3097 
z
M 1959 3584 
Q 2709 3584 3137 3096 
Q 3566 2609 3566 1747 
Q 3566 888 3137 398 
Q 2709 -91 1959 -91 
Q 1206 -91 779 398 
Q 353 888 353 1747 
Q 353 2609 779 3096 
Q 1206 3584 1959 3584 
z
" transform="scale(0.015625)"/>
       <path id="DejaVuSans-66" d="M 2375 4863 
L 2375 4384 
L 1825 4384 
Q 1516 4384 1395 4259 
Q 1275 4134 1275 3809 
L 1275 3500 
L 2222 3500 
L 2222 3053 
L 1275 3053 
L 1275 0 
L 697 0 
L 697 3053 
L 147 3053 
L 147 3500 
L 697 3500 
L 697 3744 
Q 697 4328 969 4595 
Q 1241 4863 1831 4863 
L 2375 4863 
z
" transform="scale(0.015625)"/>
       <path id="DejaVuSans-50" d="M 1259 4147 
L 1259 2394 
L 2053 2394 
Q 2494 2394 2734 2622 
Q 2975 2850 2975 3272 
Q 2975 3691 2734 3919 
Q 2494 4147 2053 4147 
L 1259 4147 
z
M 628 4666 
L 2053 4666 
Q 2838 4666 3239 4311 
Q 3641 3956 3641 3272 
Q 3641 2581 3239 2228 
Q 2838 1875 2053 1875 
L 1259 1875 
L 1259 0 
L 628 0 
L 628 4666 
z
" transform="scale(0.015625)"/>
       <path id="DejaVuSans-69" d="M 603 3500 
L 1178 3500 
L 1178 0 
L 603 0 
L 603 3500 
z
M 603 4863 
L 1178 4863 
L 1178 4134 
L 603 4134 
L 603 4863 
z
" transform="scale(0.015625)"/>
       <path id="DejaVuSans-6e" d="M 3513 2113 
L 3513 0 
L 2938 0 
L 2938 2094 
Q 2938 2591 2744 2837 
Q 2550 3084 2163 3084 
Q 1697 3084 1428 2787 
Q 1159 2491 1159 1978 
L 1159 0 
L 581 0 
L 581 3500 
L 1159 3500 
L 1159 2956 
Q 1366 3272 1645 3428 
Q 1925 3584 2291 3584 
Q 2894 3584 3203 3211 
Q 3513 2838 3513 2113 
z
" transform="scale(0.015625)"/>
       <path id="DejaVuSans-74" d="M 1172 4494 
L 1172 3500 
L 2356 3500 
L 2356 3053 
L 1172 3053 
L 1172 1153 
Q 1172 725 1289 603 
Q 1406 481 1766 481 
L 2356 481 
L 2356 0 
L 1766 0 
Q 1100 0 847 248 
Q 594 497 594 1153 
L 594 3053 
L 172 3053 
L 172 3500 
L 594 3500 
L 594 4494 
L 1172 4494 
z
" transform="scale(0.015625)"/>
       <path id="DejaVuSans-73" d="M 2834 3397 
L 2834 2853 
Q 2591 2978 2328 3040 
Q 2066 3103 1784 3103 
Q 1356 3103 1142 2972 
Q 928 2841 928 2578 
Q 928 2378 1081 2264 
Q 1234 2150 1697 2047 
L 1894 2003 
Q 2506 1872 2764 1633 
Q 3022 1394 3022 966 
Q 3022 478 2636 193 
Q 2250 -91 1575 -91 
Q 1294 -91 989 -36 
Q 684 19 347 128 
L 347 722 
Q 666 556 975 473 
Q 1284 391 1588 391 
Q 1994 391 2212 530 
Q 2431 669 2431 922 
Q 2431 1156 2273 1281 
Q 2116 1406 1581 1522 
L 1381 1569 
Q 847 1681 609 1914 
Q 372 2147 372 2553 
Q 372 3047 722 3315 
Q 1072 3584 1716 3584 
Q 2034 3584 2315 3537 
Q 2597 3491 2834 3397 
z
" transform="scale(0.015625)"/>
       <path id="DejaVuSans-28" d="M 1984 4856 
Q 1566 4138 1362 3434 
Q 1159 2731 1159 2009 
Q 1159 1288 1364 580 
Q 1569 -128 1984 -844 
L 1484 -844 
Q 1016 -109 783 600 
Q 550 1309 550 2009 
Q 550 2706 781 3412 
Q 1013 4119 1484 4856 
L 1984 4856 
z
" transform="scale(0.015625)"/>
       <path id="DejaVuSans-54" d="M -19 4666 
L 3928 4666 
L 3928 4134 
L 2272 4134 
L 2272 0 
L 1638 0 
L 1638 4134 
L -19 4134 
L -19 4666 
z
" transform="scale(0.015625)"/>
       <path id="DejaVuSans-53" d="M 3425 4513 
L 3425 3897 
Q 3066 4069 2747 4153 
Q 2428 4238 2131 4238 
Q 1616 4238 1336 4038 
Q 1056 3838 1056 3469 
Q 1056 3159 1242 3001 
Q 1428 2844 1947 2747 
L 2328 2669 
Q 3034 2534 3370 2195 
Q 3706 1856 3706 1288 
Q 3706 609 3251 259 
Q 2797 -91 1919 -91 
Q 1588 -91 1214 -16 
Q 841 59 441 206 
L 441 856 
Q 825 641 1194 531 
Q 1563 422 1919 422 
Q 2459 422 2753 634 
Q 3047 847 3047 1241 
Q 3047 1584 2836 1778 
Q 2625 1972 2144 2069 
L 1759 2144 
Q 1053 2284 737 2584 
Q 422 2884 422 3419 
Q 422 4038 858 4394 
Q 1294 4750 2059 4750 
Q 2388 4750 2728 4690 
Q 3069 4631 3425 4513 
z
" transform="scale(0.015625)"/>
       <path id="DejaVuSans-6c" d="M 603 4863 
L 1178 4863 
L 1178 0 
L 603 0 
L 603 4863 
z
" transform="scale(0.015625)"/>
       <path id="DejaVuSans-7a" d="M 353 3500 
L 3084 3500 
L 3084 2975 
L 922 459 
L 3084 459 
L 3084 0 
L 275 0 
L 275 525 
L 2438 3041 
L 353 3041 
L 353 3500 
z
" transform="scale(0.015625)"/>
       <path id="DejaVuSans-29" d="M 513 4856 
L 1013 4856 
Q 1481 4119 1714 3412 
Q 1947 2706 1947 2009 
Q 1947 1309 1714 600 
Q 1481 -109 1013 -844 
L 513 -844 
Q 928 -128 1133 580 
Q 1338 1288 1338 2009 
Q 1338 2731 1133 3434 
Q 928 4138 513 4856 
z
" transform="scale(0.015625)"/>
      </defs>
      <use xlink:href="#DejaVuSans-4e"/>
      <use xlink:href="#DejaVuSans-75" transform="translate(74.804688 0)"/>
      <use xlink:href="#DejaVuSans-6d" transform="translate(138.183594 0)"/>
      <use xlink:href="#DejaVuSans-62" transform="translate(235.595703 0)"/>
      <use xlink:href="#DejaVuSans-65" transform="translate(299.072266 0)"/>
      <use xlink:href="#DejaVuSans-72" transform="translate(360.595703 0)"/>
      <use xlink:href="#DejaVuSans-20" transform="translate(401.708984 0)"/>
      <use xlink:href="#DejaVuSans-6f" transform="translate(433.496094 0)"/>
      <use xlink:href="#DejaVuSans-66" transform="translate(494.677734 0)"/>
      <use xlink:href="#DejaVuSans-20" transform="translate(529.882812 0)"/>
      <use xlink:href="#DejaVuSans-50" transform="translate(561.669922 0)"/>
      <use xlink:href="#DejaVuSans-6f" transform="translate(618.347656 0)"/>
      <use xlink:href="#DejaVuSans-69" transform="translate(679.529297 0)"/>
      <use xlink:href="#DejaVuSans-6e" transform="translate(707.3125 0)"/>
      <use xlink:href="#DejaVuSans-74" transform="translate(770.691406 0)"/>
      <use xlink:href="#DejaVuSans-73" transform="translate(809.900391 0)"/>
      <use xlink:href="#DejaVuSans-20" transform="translate(862 0)"/>
      <use xlink:href="#DejaVuSans-28" transform="translate(893.787109 0)"/>
      <use xlink:href="#DejaVuSans-54" transform="translate(932.800781 0)"/>
      <use xlink:href="#DejaVuSans-53" transform="translate(993.884766 0)"/>
      <use xlink:href="#DejaVuSans-50" transform="translate(1057.361328 0)"/>
      <use xlink:href="#DejaVuSans-20" transform="translate(1117.664062 0)"/>
      <use xlink:href="#DejaVuSans-50" transform="translate(1149.451172 0)"/>
      <use xlink:href="#DejaVuSans-72" transform="translate(1208.003906 0)"/>
      <use xlink:href="#DejaVuSans-6f" transform="translate(1246.867188 0)"/>
      <use xlink:href="#DejaVuSans-62" transform="translate(1308.048828 0)"/>
      <use xlink:href="#DejaVuSans-6c" transform="translate(1371.525391 0)"/>
      <use xlink:href="#DejaVuSans-65" transform="translate(1399.308594 0)"/>
      <use xlink:href="#DejaVuSans-6d" transform="translate(1460.832031 0)"/>
      <use xlink:href="#DejaVuSans-20" transform="translate(1558.244141 0)"/>
      <use xlink:href="#DejaVuSans-53" transform="translate(1590.03125 0)"/>
      <use xlink:href="#DejaVuSans-69" transform="translate(1653.507812 0)"/>
      <use xlink:href="#DejaVuSans-7a" transform="translate(1681.291016 0)"/>
      <use xlink:href="#DejaVuSans-65" transform="translate(1733.78125 0)"/>
      <use xlink:href="#DejaVuSans-29" transform="translate(1795.304688 0)"/>
     </g>
    </g>
   </g>
   <g id="matplotlib.axis_2">
    <g id="ytick_1">
     <g id="line2d_11">
      <path d="M 90 430.92 
L 648 430.92 
" clip-path="url(#pc31511663e)" style="fill: none; stroke: #b0b0b0; stroke-opacity: 0.3; stroke-width: 0.8; stroke-linecap: square"/>
     </g>
     <g id="line2d_12">
      <defs>
       <path id="me20a4d8470" d="M 0 0 
L -3.5 0 
" style="stroke: #000000; stroke-width: 0.8"/>
      </defs>
      <g>
       <use xlink:href="#me20a4d8470" x="90" y="430.92" style="stroke: #000000; stroke-width: 0.8"/>
      </g>
     </g>
     <g id="text_7">
      <!-- 0 -->
      <g transform="translate(71.5475 437.758594) scale(0.18 -0.18)">
       <use xlink:href="#DejaVuSans-30"/>
      </g>
     </g>
    </g>
    <g id="ytick_2">
     <g id="line2d_13">
      <path d="M 90 356.051852 
L 648 356.051852 
" clip-path="url(#pc31511663e)" style="fill: none; stroke: #b0b0b0; stroke-opacity: 0.3; stroke-width: 0.8; stroke-linecap: square"/>
     </g>
     <g id="line2d_14">
      <g>
       <use xlink:href="#me20a4d8470" x="90" y="356.051852" style="stroke: #000000; stroke-width: 0.8"/>
      </g>
     </g>
     <g id="text_8">
      <!-- 20 -->
      <g transform="translate(60.095 362.890446) scale(0.18 -0.18)">
       <use xlink:href="#DejaVuSans-32"/>
       <use xlink:href="#DejaVuSans-30" transform="translate(63.623047 0)"/>
      </g>
     </g>
    </g>
    <g id="ytick_3">
     <g id="line2d_15">
      <path d="M 90 281.183704 
L 648 281.183704 
" clip-path="url(#pc31511663e)" style="fill: none; stroke: #b0b0b0; stroke-opacity: 0.3; stroke-width: 0.8; stroke-linecap: square"/>
     </g>
     <g id="line2d_16">
      <g>
       <use xlink:href="#me20a4d8470" x="90" y="281.183704" style="stroke: #000000; stroke-width: 0.8"/>
      </g>
     </g>
     <g id="text_9">
      <!-- 40 -->
      <g transform="translate(60.095 288.022297) scale(0.18 -0.18)">
       <defs>
        <path id="DejaVuSans-34" d="M 2419 4116 
L 825 1625 
L 2419 1625 
L 2419 4116 
z
M 2253 4666 
L 3047 4666 
L 3047 1625 
L 3713 1625 
L 3713 1100 
L 3047 1100 
L 3047 0 
L 2419 0 
L 2419 1100 
L 313 1100 
L 313 1709 
L 2253 4666 
z
" transform="scale(0.015625)"/>
       </defs>
       <use xlink:href="#DejaVuSans-34"/>
       <use xlink:href="#DejaVuSans-30" transform="translate(63.623047 0)"/>
      </g>
     </g>
    </g>
    <g id="ytick_4">
     <g id="line2d_17">
      <path d="M 90 206.315556 
L 648 206.315556 
" clip-path="url(#pc31511663e)" style="fill: none; stroke: #b0b0b0; stroke-opacity: 0.3; stroke-width: 0.8; stroke-linecap: square"/>
     </g>
     <g id="line2d_18">
      <g>
       <use xlink:href="#me20a4d8470" x="90" y="206.315556" style="stroke: #000000; stroke-width: 0.8"/>
      </g>
     </g>
     <g id="text_10">
      <!-- 60 -->
      <g transform="translate(60.095 213.154149) scale(0.18 -0.18)">
       <defs>
        <path id="DejaVuSans-36" d="M 2113 2584 
Q 1688 2584 1439 2293 
Q 1191 2003 1191 1497 
Q 1191 994 1439 701 
Q 1688 409 2113 409 
Q 2538 409 2786 701 
Q 3034 994 3034 1497 
Q 3034 2003 2786 2293 
Q 2538 2584 2113 2584 
z
M 3366 4563 
L 3366 3988 
Q 3128 4100 2886 4159 
Q 2644 4219 2406 4219 
Q 1781 4219 1451 3797 
Q 1122 3375 1075 2522 
Q 1259 2794 1537 2939 
Q 1816 3084 2150 3084 
Q 2853 3084 3261 2657 
Q 3669 2231 3669 1497 
Q 3669 778 3244 343 
Q 2819 -91 2113 -91 
Q 1303 -91 875 529 
Q 447 1150 447 2328 
Q 447 3434 972 4092 
Q 1497 4750 2381 4750 
Q 2619 4750 2861 4703 
Q 3103 4656 3366 4563 
z
" transform="scale(0.015625)"/>
       </defs>
       <use xlink:href="#DejaVuSans-36"/>
       <use xlink:href="#DejaVuSans-30" transform="translate(63.623047 0)"/>
      </g>
     </g>
    </g>
    <g id="ytick_5">
     <g id="line2d_19">
      <path d="M 90 131.447407 
L 648 131.447407 
" clip-path="url(#pc31511663e)" style="fill: none; stroke: #b0b0b0; stroke-opacity: 0.3; stroke-width: 0.8; stroke-linecap: square"/>
     </g>
     <g id="line2d_20">
      <g>
       <use xlink:href="#me20a4d8470" x="90" y="131.447407" style="stroke: #000000; stroke-width: 0.8"/>
      </g>
     </g>
     <g id="text_11">
      <!-- 80 -->
      <g transform="translate(60.095 138.286001) scale(0.18 -0.18)">
       <defs>
        <path id="DejaVuSans-38" d="M 2034 2216 
Q 1584 2216 1326 1975 
Q 1069 1734 1069 1313 
Q 1069 891 1326 650 
Q 1584 409 2034 409 
Q 2484 409 2743 651 
Q 3003 894 3003 1313 
Q 3003 1734 2745 1975 
Q 2488 2216 2034 2216 
z
M 1403 2484 
Q 997 2584 770 2862 
Q 544 3141 544 3541 
Q 544 4100 942 4425 
Q 1341 4750 2034 4750 
Q 2731 4750 3128 4425 
Q 3525 4100 3525 3541 
Q 3525 3141 3298 2862 
Q 3072 2584 2669 2484 
Q 3125 2378 3379 2068 
Q 3634 1759 3634 1313 
Q 3634 634 3220 271 
Q 2806 -91 2034 -91 
Q 1263 -91 848 271 
Q 434 634 434 1313 
Q 434 1759 690 2068 
Q 947 2378 1403 2484 
z
M 1172 3481 
Q 1172 3119 1398 2916 
Q 1625 2713 2034 2713 
Q 2441 2713 2670 2916 
Q 2900 3119 2900 3481 
Q 2900 3844 2670 4047 
Q 2441 4250 2034 4250 
Q 1625 4250 1398 4047 
Q 1172 3844 1172 3481 
z
" transform="scale(0.015625)"/>
       </defs>
       <use xlink:href="#DejaVuSans-38"/>
       <use xlink:href="#DejaVuSans-30" transform="translate(63.623047 0)"/>
      </g>
     </g>
    </g>
    <g id="text_12">
     <!-- Percentage from Optimal -->
     <g transform="translate(52.351562 367.409531) rotate(-90) scale(0.18 -0.18)">
      <defs>
       <path id="DejaVuSans-63" d="M 3122 3366 
L 3122 2828 
Q 2878 2963 2633 3030 
Q 2388 3097 2138 3097 
Q 1578 3097 1268 2742 
Q 959 2388 959 1747 
Q 959 1106 1268 751 
Q 1578 397 2138 397 
Q 2388 397 2633 464 
Q 2878 531 3122 666 
L 3122 134 
Q 2881 22 2623 -34 
Q 2366 -91 2075 -91 
Q 1284 -91 818 406 
Q 353 903 353 1747 
Q 353 2603 823 3093 
Q 1294 3584 2113 3584 
Q 2378 3584 2631 3529 
Q 2884 3475 3122 3366 
z
" transform="scale(0.015625)"/>
       <path id="DejaVuSans-61" d="M 2194 1759 
Q 1497 1759 1228 1600 
Q 959 1441 959 1056 
Q 959 750 1161 570 
Q 1363 391 1709 391 
Q 2188 391 2477 730 
Q 2766 1069 2766 1631 
L 2766 1759 
L 2194 1759 
z
M 3341 1997 
L 3341 0 
L 2766 0 
L 2766 531 
Q 2569 213 2275 61 
Q 1981 -91 1556 -91 
Q 1019 -91 701 211 
Q 384 513 384 1019 
Q 384 1609 779 1909 
Q 1175 2209 1959 2209 
L 2766 2209 
L 2766 2266 
Q 2766 2663 2505 2880 
Q 2244 3097 1772 3097 
Q 1472 3097 1187 3025 
Q 903 2953 641 2809 
L 641 3341 
Q 956 3463 1253 3523 
Q 1550 3584 1831 3584 
Q 2591 3584 2966 3190 
Q 3341 2797 3341 1997 
z
" transform="scale(0.015625)"/>
       <path id="DejaVuSans-67" d="M 2906 1791 
Q 2906 2416 2648 2759 
Q 2391 3103 1925 3103 
Q 1463 3103 1205 2759 
Q 947 2416 947 1791 
Q 947 1169 1205 825 
Q 1463 481 1925 481 
Q 2391 481 2648 825 
Q 2906 1169 2906 1791 
z
M 3481 434 
Q 3481 -459 3084 -895 
Q 2688 -1331 1869 -1331 
Q 1566 -1331 1297 -1286 
Q 1028 -1241 775 -1147 
L 775 -588 
Q 1028 -725 1275 -790 
Q 1522 -856 1778 -856 
Q 2344 -856 2625 -561 
Q 2906 -266 2906 331 
L 2906 616 
Q 2728 306 2450 153 
Q 2172 0 1784 0 
Q 1141 0 747 490 
Q 353 981 353 1791 
Q 353 2603 747 3093 
Q 1141 3584 1784 3584 
Q 2172 3584 2450 3431 
Q 2728 3278 2906 2969 
L 2906 3500 
L 3481 3500 
L 3481 434 
z
" transform="scale(0.015625)"/>
       <path id="DejaVuSans-4f" d="M 2522 4238 
Q 1834 4238 1429 3725 
Q 1025 3213 1025 2328 
Q 1025 1447 1429 934 
Q 1834 422 2522 422 
Q 3209 422 3611 934 
Q 4013 1447 4013 2328 
Q 4013 3213 3611 3725 
Q 3209 4238 2522 4238 
z
M 2522 4750 
Q 3503 4750 4090 4092 
Q 4678 3434 4678 2328 
Q 4678 1225 4090 567 
Q 3503 -91 2522 -91 
Q 1538 -91 948 565 
Q 359 1222 359 2328 
Q 359 3434 948 4092 
Q 1538 4750 2522 4750 
z
" transform="scale(0.015625)"/>
       <path id="DejaVuSans-70" d="M 1159 525 
L 1159 -1331 
L 581 -1331 
L 581 3500 
L 1159 3500 
L 1159 2969 
Q 1341 3281 1617 3432 
Q 1894 3584 2278 3584 
Q 2916 3584 3314 3078 
Q 3713 2572 3713 1747 
Q 3713 922 3314 415 
Q 2916 -91 2278 -91 
Q 1894 -91 1617 61 
Q 1341 213 1159 525 
z
M 3116 1747 
Q 3116 2381 2855 2742 
Q 2594 3103 2138 3103 
Q 1681 3103 1420 2742 
Q 1159 2381 1159 1747 
Q 1159 1113 1420 752 
Q 1681 391 2138 391 
Q 2594 391 2855 752 
Q 3116 1113 3116 1747 
z
" transform="scale(0.015625)"/>
      </defs>
      <use xlink:href="#DejaVuSans-50"/>
      <use xlink:href="#DejaVuSans-65" transform="translate(56.677734 0)"/>
      <use xlink:href="#DejaVuSans-72" transform="translate(118.201172 0)"/>
      <use xlink:href="#DejaVuSans-63" transform="translate(157.064453 0)"/>
      <use xlink:href="#DejaVuSans-65" transform="translate(212.044922 0)"/>
      <use xlink:href="#DejaVuSans-6e" transform="translate(273.568359 0)"/>
      <use xlink:href="#DejaVuSans-74" transform="translate(336.947266 0)"/>
      <use xlink:href="#DejaVuSans-61" transform="translate(376.15625 0)"/>
      <use xlink:href="#DejaVuSans-67" transform="translate(437.435547 0)"/>
      <use xlink:href="#DejaVuSans-65" transform="translate(500.912109 0)"/>
      <use xlink:href="#DejaVuSans-20" transform="translate(562.435547 0)"/>
      <use xlink:href="#DejaVuSans-66" transform="translate(594.222656 0)"/>
      <use xlink:href="#DejaVuSans-72" transform="translate(629.427734 0)"/>
      <use xlink:href="#DejaVuSans-6f" transform="translate(668.291016 0)"/>
      <use xlink:href="#DejaVuSans-6d" transform="translate(729.472656 0)"/>
      <use xlink:href="#DejaVuSans-20" transform="translate(826.884766 0)"/>
      <use xlink:href="#DejaVuSans-4f" transform="translate(858.671875 0)"/>
      <use xlink:href="#DejaVuSans-70" transform="translate(937.382812 0)"/>
      <use xlink:href="#DejaVuSans-74" transform="translate(1000.859375 0)"/>
      <use xlink:href="#DejaVuSans-69" transform="translate(1040.068359 0)"/>
      <use xlink:href="#DejaVuSans-6d" transform="translate(1067.851562 0)"/>
      <use xlink:href="#DejaVuSans-61" transform="translate(1165.263672 0)"/>
      <use xlink:href="#DejaVuSans-6c" transform="translate(1226.542969 0)"/>
     </g>
    </g>
   </g>
   <g id="line2d_21">
    <path d="M 115.363636 409.413958 
L 115.363636 409.413958 
L 115.363636 409.413958 
L 115.363636 409.413958 
L 115.363636 409.413958 
L 242.181818 400.051125 
L 242.181818 400.051125 
L 242.181818 400.051125 
L 242.181818 400.051125 
L 242.181818 400.051125 
L 242.181818 400.051125 
L 369 390.688292 
L 369 390.688292 
L 369 390.688292 
L 369 390.688292 
L 369 390.688292 
L 369 390.688292 
L 495.818182 381.32546 
L 495.818182 381.32546 
L 495.818182 381.32546 
L 495.818182 381.32546 
L 495.818182 381.32546 
L 495.818182 381.32546 
L 622.636364 371.962627 
L 622.636364 371.962627 
L 622.636364 371.962627 
L 622.636364 371.962627 
" clip-path="url(#pc31511663e)" style="fill: none; stroke-dasharray: 7.4,3.2; stroke-dashoffset: 0; stroke: #0000ff; stroke-width: 2"/>
   </g>
   <g id="line2d_22">
    <path d="M 115.363636 369.011953 
L 115.363636 369.011953 
L 115.363636 369.011953 
L 115.363636 369.011953 
L 115.363636 369.011953 
L 242.181818 354.615436 
L 242.181818 354.615436 
L 242.181818 354.615436 
L 242.181818 354.615436 
L 242.181818 354.615436 
L 369 340.218919 
L 369 340.218919 
L 369 340.218919 
L 369 340.218919 
L 369 340.218919 
L 369 340.218919 
L 495.818182 325.822401 
L 495.818182 325.822401 
L 495.818182 325.822401 
L 495.818182 325.822401 
L 622.636364 311.425884 
L 622.636364 311.425884 
L 622.636364 311.425884 
" clip-path="url(#pc31511663e)" style="fill: none; stroke: #ffa500; stroke-width: 2; stroke-linecap: square"/>
   </g>
   <g id="patch_3">
    <path d="M 90 448.56 
L 90 60.48 
" style="fill: none; stroke: #000000; stroke-width: 0.8; stroke-linejoin: miter; stroke-linecap: square"/>
   </g>
   <g id="patch_4">
    <path d="M 648 448.56 
L 648 60.48 
" style="fill: none; stroke: #000000; stroke-width: 0.8; stroke-linejoin: miter; stroke-linecap: square"/>
   </g>
   <g id="patch_5">
    <path d="M 90 448.56 
L 648 448.56 
" style="fill: none; stroke: #000000; stroke-width: 0.8; stroke-linejoin: miter; stroke-linecap: square"/>
   </g>
   <g id="patch_6">
    <path d="M 90 60.48 
L 648 60.48 
" style="fill: none; stroke: #000000; stroke-width: 0.8; stroke-linejoin: miter; stroke-linecap: square"/>
   </g>
   <g id="text_13">
    <!-- Size of TSP Problem vs. Percentage from Optimal -->
    <g transform="translate(104.2245 54.48) scale(0.216 -0.216)">
     <defs>
      <path id="DejaVuSans-76" d="M 191 3500 
L 800 3500 
L 1894 563 
L 2988 3500 
L 3597 3500 
L 2284 0 
L 1503 0 
L 191 3500 
z
" transform="scale(0.015625)"/>
      <path id="DejaVuSans-2e" d="M 684 794 
L 1344 794 
L 1344 0 
L 684 0 
L 684 794 
z
" transform="scale(0.015625)"/>
     </defs>
     <use xlink:href="#DejaVuSans-53"/>
     <use xlink:href="#DejaVuSans-69" transform="translate(63.476562 0)"/>
     <use xlink:href="#DejaVuSans-7a" transform="translate(91.259766 0)"/>
     <use xlink:href="#DejaVuSans-65" transform="translate(143.75 0)"/>
     <use xlink:href="#DejaVuSans-20" transform="translate(205.273438 0)"/>
     <use xlink:href="#DejaVuSans-6f" transform="translate(237.060547 0)"/>
     <use xlink:href="#DejaVuSans-66" transform="translate(298.242188 0)"/>
     <use xlink:href="#DejaVuSans-20" transform="translate(333.447266 0)"/>
     <use xlink:href="#DejaVuSans-54" transform="translate(365.234375 0)"/>
     <use xlink:href="#DejaVuSans-53" transform="translate(426.318359 0)"/>
     <use xlink:href="#DejaVuSans-50" transform="translate(489.794922 0)"/>
     <use xlink:href="#DejaVuSans-20" transform="translate(550.097656 0)"/>
     <use xlink:href="#DejaVuSans-50" transform="translate(581.884766 0)"/>
     <use xlink:href="#DejaVuSans-72" transform="translate(640.4375 0)"/>
     <use xlink:href="#DejaVuSans-6f" transform="translate(679.300781 0)"/>
     <use xlink:href="#DejaVuSans-62" transform="translate(740.482422 0)"/>
     <use xlink:href="#DejaVuSans-6c" transform="translate(803.958984 0)"/>
     <use xlink:href="#DejaVuSans-65" transform="translate(831.742188 0)"/>
     <use xlink:href="#DejaVuSans-6d" transform="translate(893.265625 0)"/>
     <use xlink:href="#DejaVuSans-20" transform="translate(990.677734 0)"/>
     <use xlink:href="#DejaVuSans-76" transform="translate(1022.464844 0)"/>
     <use xlink:href="#DejaVuSans-73" transform="translate(1081.644531 0)"/>
     <use xlink:href="#DejaVuSans-2e" transform="translate(1133.744141 0)"/>
     <use xlink:href="#DejaVuSans-20" transform="translate(1165.53125 0)"/>
     <use xlink:href="#DejaVuSans-50" transform="translate(1197.318359 0)"/>
     <use xlink:href="#DejaVuSans-65" transform="translate(1253.996094 0)"/>
     <use xlink:href="#DejaVuSans-72" transform="translate(1315.519531 0)"/>
     <use xlink:href="#DejaVuSans-63" transform="translate(1354.382812 0)"/>
     <use xlink:href="#DejaVuSans-65" transform="translate(1409.363281 0)"/>
     <use xlink:href="#DejaVuSans-6e" transform="translate(1470.886719 0)"/>
     <use xlink:href="#DejaVuSans-74" transform="translate(1534.265625 0)"/>
     <use xlink:href="#DejaVuSans-61" transform="translate(1573.474609 0)"/>
     <use xlink:href="#DejaVuSans-67" transform="translate(1634.753906 0)"/>
     <use xlink:href="#DejaVuSans-65" transform="translate(1698.230469 0)"/>
     <use xlink:href="#DejaVuSans-20" transform="translate(1759.753906 0)"/>
     <use xlink:href="#DejaVuSans-66" transform="translate(1791.541016 0)"/>
     <use xlink:href="#DejaVuSans-72" transform="translate(1826.746094 0)"/>
     <use xlink:href="#DejaVuSans-6f" transform="translate(1865.609375 0)"/>
     <use xlink:href="#DejaVuSans-6d" transform="translate(1926.791016 0)"/>
     <use xlink:href="#DejaVuSans-20" transform="translate(2024.203125 0)"/>
     <use xlink:href="#DejaVuSans-4f" transform="translate(2055.990234 0)"/>
     <use xlink:href="#DejaVuSans-70" transform="translate(2134.701172 0)"/>
     <use xlink:href="#DejaVuSans-74" transform="translate(2198.177734 0)"/>
     <use xlink:href="#DejaVuSans-69" transform="translate(2237.386719 0)"/>
     <use xlink:href="#DejaVuSans-6d" transform="translate(2265.169922 0)"/>
     <use xlink:href="#DejaVuSans-61" transform="translate(2362.582031 0)"/>
     <use xlink:href="#DejaVuSans-6c" transform="translate(2423.861328 0)"/>
    </g>
   </g>
   <g id="legend_1">
    <g id="patch_7">
     <path d="M 237.96 186.04125 
L 635.4 186.04125 
Q 639 186.04125 639 182.44125 
L 639 73.08 
Q 639 69.48 635.4 69.48 
L 237.96 69.48 
Q 234.36 69.48 234.36 73.08 
L 234.36 182.44125 
Q 234.36 186.04125 237.96 186.04125 
z
" style="fill: #ffffff; opacity: 0.8; stroke: #cccccc; stroke-linejoin: miter"/>
    </g>
    <g id="PathCollection_3">
     <g>
      <use xlink:href="#m150c960469" x="259.56" y="85.632188" style="fill: #0000ff; stroke: #0000ff"/>
     </g>
    </g>
    <g id="text_14">
     <!-- gemini-2.5-flash -->
     <g transform="translate(291.96 90.357188) scale(0.18 -0.18)">
      <defs>
       <path id="DejaVuSans-2d" d="M 313 2009 
L 1997 2009 
L 1997 1497 
L 313 1497 
L 313 2009 
z
" transform="scale(0.015625)"/>
       <path id="DejaVuSans-68" d="M 3513 2113 
L 3513 0 
L 2938 0 
L 2938 2094 
Q 2938 2591 2744 2837 
Q 2550 3084 2163 3084 
Q 1697 3084 1428 2787 
Q 1159 2491 1159 1978 
L 1159 0 
L 581 0 
L 581 4863 
L 1159 4863 
L 1159 2956 
Q 1366 3272 1645 3428 
Q 1925 3584 2291 3584 
Q 2894 3584 3203 3211 
Q 3513 2838 3513 2113 
z
" transform="scale(0.015625)"/>
      </defs>
      <use xlink:href="#DejaVuSans-67"/>
      <use xlink:href="#DejaVuSans-65" transform="translate(63.476562 0)"/>
      <use xlink:href="#DejaVuSans-6d" transform="translate(125 0)"/>
      <use xlink:href="#DejaVuSans-69" transform="translate(222.412109 0)"/>
      <use xlink:href="#DejaVuSans-6e" transform="translate(250.195312 0)"/>
      <use xlink:href="#DejaVuSans-69" transform="translate(313.574219 0)"/>
      <use xlink:href="#DejaVuSans-2d" transform="translate(341.357422 0)"/>
      <use xlink:href="#DejaVuSans-32" transform="translate(377.441406 0)"/>
      <use xlink:href="#DejaVuSans-2e" transform="translate(441.064453 0)"/>
      <use xlink:href="#DejaVuSans-35" transform="translate(472.851562 0)"/>
      <use xlink:href="#DejaVuSans-2d" transform="translate(536.474609 0)"/>
      <use xlink:href="#DejaVuSans-66" transform="translate(572.558594 0)"/>
      <use xlink:href="#DejaVuSans-6c" transform="translate(607.763672 0)"/>
      <use xlink:href="#DejaVuSans-61" transform="translate(635.546875 0)"/>
      <use xlink:href="#DejaVuSans-73" transform="translate(696.826172 0)"/>
      <use xlink:href="#DejaVuSans-68" transform="translate(748.925781 0)"/>
     </g>
    </g>
    <g id="PathCollection_4">
     <g>
      <use xlink:href="#mc4c66f9106" x="259.56" y="112.052812" style="fill: #ffa500; stroke: #ffa500"/>
     </g>
    </g>
    <g id="text_15">
     <!-- qwen3-vl -->
     <g transform="translate(291.96 116.777812) scale(0.18 -0.18)">
      <defs>
       <path id="DejaVuSans-71" d="M 947 1747 
Q 947 1113 1208 752 
Q 1469 391 1925 391 
Q 2381 391 2643 752 
Q 2906 1113 2906 1747 
Q 2906 2381 2643 2742 
Q 2381 3103 1925 3103 
Q 1469 3103 1208 2742 
Q 947 2381 947 1747 
z
M 2906 525 
Q 2725 213 2448 61 
Q 2172 -91 1784 -91 
Q 1150 -91 751 415 
Q 353 922 353 1747 
Q 353 2572 751 3078 
Q 1150 3584 1784 3584 
Q 2172 3584 2448 3432 
Q 2725 3281 2906 2969 
L 2906 3500 
L 3481 3500 
L 3481 -1331 
L 2906 -1331 
L 2906 525 
z
" transform="scale(0.015625)"/>
       <path id="DejaVuSans-77" d="M 269 3500 
L 844 3500 
L 1563 769 
L 2278 3500 
L 2956 3500 
L 3675 769 
L 4391 3500 
L 4966 3500 
L 4050 0 
L 3372 0 
L 2619 2869 
L 1863 0 
L 1184 0 
L 269 3500 
z
" transform="scale(0.015625)"/>
      </defs>
      <use xlink:href="#DejaVuSans-71"/>
      <use xlink:href="#DejaVuSans-77" transform="translate(63.476562 0)"/>
      <use xlink:href="#DejaVuSans-65" transform="translate(145.263672 0)"/>
      <use xlink:href="#DejaVuSans-6e" transform="translate(206.787109 0)"/>
      <use xlink:href="#DejaVuSans-33" transform="translate(270.166016 0)"/>
      <use xlink:href="#DejaVuSans-2d" transform="translate(333.789062 0)"/>
      <use xlink:href="#DejaVuSans-76" transform="translate(367.248047 0)"/>
      <use xlink:href="#DejaVuSans-6c" transform="translate(426.427734 0)"/>
     </g>
    </g>
    <g id="line2d_23">
     <path d="M 241.56 139.60125 
L 259.56 139.60125 
L 277.56 139.60125 
" style="fill: none; stroke-dasharray: 7.4,3.2; stroke-dashoffset: 0; stroke: #0000ff; stroke-width: 2"/>
    </g>
    <g id="text_16">
     <!-- Gemini Fit: y=0.50x + 1, ($R^2=0.135$) -->
     <g transform="translate(291.96 145.90125) scale(0.18 -0.18)">
      <defs>
       <path id="DejaVuSans-47" d="M 3809 666 
L 3809 1919 
L 2778 1919 
L 2778 2438 
L 4434 2438 
L 4434 434 
Q 4069 175 3628 42 
Q 3188 -91 2688 -91 
Q 1594 -91 976 548 
Q 359 1188 359 2328 
Q 359 3472 976 4111 
Q 1594 4750 2688 4750 
Q 3144 4750 3555 4637 
Q 3966 4525 4313 4306 
L 4313 3634 
Q 3963 3931 3569 4081 
Q 3175 4231 2741 4231 
Q 1884 4231 1454 3753 
Q 1025 3275 1025 2328 
Q 1025 1384 1454 906 
Q 1884 428 2741 428 
Q 3075 428 3337 486 
Q 3600 544 3809 666 
z
" transform="scale(0.015625)"/>
       <path id="DejaVuSans-46" d="M 628 4666 
L 3309 4666 
L 3309 4134 
L 1259 4134 
L 1259 2759 
L 3109 2759 
L 3109 2228 
L 1259 2228 
L 1259 0 
L 628 0 
L 628 4666 
z
" transform="scale(0.015625)"/>
       <path id="DejaVuSans-3a" d="M 750 794 
L 1409 794 
L 1409 0 
L 750 0 
L 750 794 
z
M 750 3309 
L 1409 3309 
L 1409 2516 
L 750 2516 
L 750 3309 
z
" transform="scale(0.015625)"/>
       <path id="DejaVuSans-79" d="M 2059 -325 
Q 1816 -950 1584 -1140 
Q 1353 -1331 966 -1331 
L 506 -1331 
L 506 -850 
L 844 -850 
Q 1081 -850 1212 -737 
Q 1344 -625 1503 -206 
L 1606 56 
L 191 3500 
L 800 3500 
L 1894 763 
L 2988 3500 
L 3597 3500 
L 2059 -325 
z
" transform="scale(0.015625)"/>
       <path id="DejaVuSans-3d" d="M 678 2906 
L 4684 2906 
L 4684 2381 
L 678 2381 
L 678 2906 
z
M 678 1631 
L 4684 1631 
L 4684 1100 
L 678 1100 
L 678 1631 
z
" transform="scale(0.015625)"/>
       <path id="DejaVuSans-78" d="M 3513 3500 
L 2247 1797 
L 3578 0 
L 2900 0 
L 1881 1375 
L 863 0 
L 184 0 
L 1544 1831 
L 300 3500 
L 978 3500 
L 1906 2253 
L 2834 3500 
L 3513 3500 
z
" transform="scale(0.015625)"/>
       <path id="DejaVuSans-2b" d="M 2944 4013 
L 2944 2272 
L 4684 2272 
L 4684 1741 
L 2944 1741 
L 2944 0 
L 2419 0 
L 2419 1741 
L 678 1741 
L 678 2272 
L 2419 2272 
L 2419 4013 
L 2944 4013 
z
" transform="scale(0.015625)"/>
       <path id="DejaVuSans-2c" d="M 750 794 
L 1409 794 
L 1409 256 
L 897 -744 
L 494 -744 
L 750 256 
L 750 794 
z
" transform="scale(0.015625)"/>
       <path id="DejaVuSans-Oblique-52" d="M 1613 4147 
L 1294 2491 
L 2106 2491 
Q 2584 2491 2879 2755 
Q 3175 3019 3175 3444 
Q 3175 3784 2976 3965 
Q 2778 4147 2406 4147 
L 1613 4147 
z
M 2772 2241 
Q 2972 2194 3105 2009 
Q 3238 1825 3413 1275 
L 3809 0 
L 3144 0 
L 2778 1197 
Q 2638 1659 2453 1815 
Q 2269 1972 1888 1972 
L 1191 1972 
L 806 0 
L 172 0 
L 1081 4666 
L 2503 4666 
Q 3150 4666 3495 4373 
Q 3841 4081 3841 3531 
Q 3841 3044 3547 2687 
Q 3253 2331 2772 2241 
z
" transform="scale(0.015625)"/>
      </defs>
      <use xlink:href="#DejaVuSans-47" transform="translate(0 0.765625)"/>
      <use xlink:href="#DejaVuSans-65" transform="translate(77.490234 0.765625)"/>
      <use xlink:href="#DejaVuSans-6d" transform="translate(139.013672 0.765625)"/>
      <use xlink:href="#DejaVuSans-69" transform="translate(236.425781 0.765625)"/>
      <use xlink:href="#DejaVuSans-6e" transform="translate(264.208984 0.765625)"/>
      <use xlink:href="#DejaVuSans-69" transform="translate(327.587891 0.765625)"/>
      <use xlink:href="#DejaVuSans-20" transform="translate(355.371094 0.765625)"/>
      <use xlink:href="#DejaVuSans-46" transform="translate(387.158203 0.765625)"/>
      <use xlink:href="#DejaVuSans-69" transform="translate(444.677734 0.765625)"/>
      <use xlink:href="#DejaVuSans-74" transform="translate(472.460938 0.765625)"/>
      <use xlink:href="#DejaVuSans-3a" transform="translate(511.669922 0.765625)"/>
      <use xlink:href="#DejaVuSans-20" transform="translate(545.361328 0.765625)"/>
      <use xlink:href="#DejaVuSans-79" transform="translate(577.148438 0.765625)"/>
      <use xlink:href="#DejaVuSans-3d" transform="translate(636.328125 0.765625)"/>
      <use xlink:href="#DejaVuSans-30" transform="translate(720.117188 0.765625)"/>
      <use xlink:href="#DejaVuSans-2e" transform="translate(783.740234 0.765625)"/>
      <use xlink:href="#DejaVuSans-35" transform="translate(815.527344 0.765625)"/>
      <use xlink:href="#DejaVuSans-30" transform="translate(879.150391 0.765625)"/>
      <use xlink:href="#DejaVuSans-78" transform="translate(942.773438 0.765625)"/>
      <use xlink:href="#DejaVuSans-20" transform="translate(1001.953125 0.765625)"/>
      <use xlink:href="#DejaVuSans-2b" transform="translate(1033.740234 0.765625)"/>
      <use xlink:href="#DejaVuSans-20" transform="translate(1117.529297 0.765625)"/>
      <use xlink:href="#DejaVuSans-31" transform="translate(1149.316406 0.765625)"/>
      <use xlink:href="#DejaVuSans-2c" transform="translate(1212.939453 0.765625)"/>
      <use xlink:href="#DejaVuSans-20" transform="translate(1244.726562 0.765625)"/>
      <use xlink:href="#DejaVuSans-28" transform="translate(1276.513672 0.765625)"/>
      <use xlink:href="#DejaVuSans-Oblique-52" transform="translate(1315.527344 0.765625)"/>
      <use xlink:href="#DejaVuSans-32" transform="translate(1392.026536 39.046875) scale(0.7)"/>
      <use xlink:href="#DejaVuSans-3d" transform="translate(1458.779466 0.765625)"/>
      <use xlink:href="#DejaVuSans-30" transform="translate(1562.050951 0.765625)"/>
      <use xlink:href="#DejaVuSans-2e" transform="translate(1625.673997 0.765625)"/>
      <use xlink:href="#DejaVuSans-31" transform="translate(1657.461107 0.765625)"/>
      <use xlink:href="#DejaVuSans-33" transform="translate(1721.084154 0.765625)"/>
      <use xlink:href="#DejaVuSans-35" transform="translate(1784.707201 0.765625)"/>
      <use xlink:href="#DejaVuSans-29" transform="translate(1848.330247 0.765625)"/>
     </g>
    </g>
    <g id="line2d_24">
     <path d="M 241.56 168.76125 
L 259.56 168.76125 
L 277.56 168.76125 
" style="fill: none; stroke: #ffa500; stroke-width: 2; stroke-linecap: square"/>
    </g>
    <g id="text_17">
     <!-- Qwen Fit: y=0.77x + 9, ($R^2=0.061$) -->
     <g transform="translate(291.96 175.06125) scale(0.18 -0.18)">
      <defs>
       <path id="DejaVuSans-51" d="M 2522 4238 
Q 1834 4238 1429 3725 
Q 1025 3213 1025 2328 
Q 1025 1447 1429 934 
Q 1834 422 2522 422 
Q 3209 422 3611 934 
Q 4013 1447 4013 2328 
Q 4013 3213 3611 3725 
Q 3209 4238 2522 4238 
z
M 3406 84 
L 4238 -825 
L 3475 -825 
L 2784 -78 
Q 2681 -84 2626 -87 
Q 2572 -91 2522 -91 
Q 1538 -91 948 567 
Q 359 1225 359 2328 
Q 359 3434 948 4092 
Q 1538 4750 2522 4750 
Q 3503 4750 4090 4092 
Q 4678 3434 4678 2328 
Q 4678 1516 4351 937 
Q 4025 359 3406 84 
z
" transform="scale(0.015625)"/>
       <path id="DejaVuSans-37" d="M 525 4666 
L 3525 4666 
L 3525 4397 
L 1831 0 
L 1172 0 
L 2766 4134 
L 525 4134 
L 525 4666 
z
" transform="scale(0.015625)"/>
       <path id="DejaVuSans-39" d="M 703 97 
L 703 672 
Q 941 559 1184 500 
Q 1428 441 1663 441 
Q 2288 441 2617 861 
Q 2947 1281 2994 2138 
Q 2813 1869 2534 1725 
Q 2256 1581 1919 1581 
Q 1219 1581 811 2004 
Q 403 2428 403 3163 
Q 403 3881 828 4315 
Q 1253 4750 1959 4750 
Q 2769 4750 3195 4129 
Q 3622 3509 3622 2328 
Q 3622 1225 3098 567 
Q 2575 -91 1691 -91 
Q 1453 -91 1209 -44 
Q 966 3 703 97 
z
M 1959 2075 
Q 2384 2075 2632 2365 
Q 2881 2656 2881 3163 
Q 2881 3666 2632 3958 
Q 2384 4250 1959 4250 
Q 1534 4250 1286 3958 
Q 1038 3666 1038 3163 
Q 1038 2656 1286 2365 
Q 1534 2075 1959 2075 
z
" transform="scale(0.015625)"/>
      </defs>
      <use xlink:href="#DejaVuSans-51" transform="translate(0 0.765625)"/>
      <use xlink:href="#DejaVuSans-77" transform="translate(78.710938 0.765625)"/>
      <use xlink:href="#DejaVuSans-65" transform="translate(160.498047 0.765625)"/>
      <use xlink:href="#DejaVuSans-6e" transform="translate(222.021484 0.765625)"/>
      <use xlink:href="#DejaVuSans-20" transform="translate(285.400391 0.765625)"/>
      <use xlink:href="#DejaVuSans-46" transform="translate(317.1875 0.765625)"/>
      <use xlink:href="#DejaVuSans-69" transform="translate(374.707031 0.765625)"/>
      <use xlink:href="#DejaVuSans-74" transform="translate(402.490234 0.765625)"/>
      <use xlink:href="#DejaVuSans-3a" transform="translate(441.699219 0.765625)"/>
      <use xlink:href="#DejaVuSans-20" transform="translate(475.390625 0.765625)"/>
      <use xlink:href="#DejaVuSans-79" transform="translate(507.177734 0.765625)"/>
      <use xlink:href="#DejaVuSans-3d" transform="translate(566.357422 0.765625)"/>
      <use xlink:href="#DejaVuSans-30" transform="translate(650.146484 0.765625)"/>
      <use xlink:href="#DejaVuSans-2e" transform="translate(713.769531 0.765625)"/>
      <use xlink:href="#DejaVuSans-37" transform="translate(737.806641 0.765625)"/>
      <use xlink:href="#DejaVuSans-37" transform="translate(799.679688 0.765625)"/>
      <use xlink:href="#DejaVuSans-78" transform="translate(863.302734 0.765625)"/>
      <use xlink:href="#DejaVuSans-20" transform="translate(922.482422 0.765625)"/>
      <use xlink:href="#DejaVuSans-2b" transform="translate(954.269531 0.765625)"/>
      <use xlink:href="#DejaVuSans-20" transform="translate(1038.058594 0.765625)"/>
      <use xlink:href="#DejaVuSans-39" transform="translate(1069.845703 0.765625)"/>
      <use xlink:href="#DejaVuSans-2c" transform="translate(1133.46875 0.765625)"/>
      <use xlink:href="#DejaVuSans-20" transform="translate(1165.255859 0.765625)"/>
      <use xlink:href="#DejaVuSans-28" transform="translate(1197.042969 0.765625)"/>
      <use xlink:href="#DejaVuSans-Oblique-52" transform="translate(1236.056641 0.765625)"/>
      <use xlink:href="#DejaVuSans-32" transform="translate(1312.555833 39.046875) scale(0.7)"/>
      <use xlink:href="#DejaVuSans-3d" transform="translate(1379.308763 0.765625)"/>
      <use xlink:href="#DejaVuSans-30" transform="translate(1482.580247 0.765625)"/>
      <use xlink:href="#DejaVuSans-2e" transform="translate(1546.203294 0.765625)"/>
      <use xlink:href="#DejaVuSans-30" transform="translate(1577.990404 0.765625)"/>
      <use xlink:href="#DejaVuSans-36" transform="translate(1641.613451 0.765625)"/>
      <use xlink:href="#DejaVuSans-31" transform="translate(1705.236497 0.765625)"/>
      <use xlink:href="#DejaVuSans-29" transform="translate(1768.859544 0.765625)"/>
     </g>
    </g>
   </g>
  </g>
 </g>
 <defs>
  <clipPath id="pc31511663e">
   <rect x="90" y="60.48" width="558" height="388.08"/>
  </clipPath>
 </defs>
</svg>
